<svg width="1440" height="600" viewBox="0 0 1440 600" fill="none" xmlns="http://www.w3.org/2000/svg">
<g clip-path="url(#clip0_317_128)">
<path d="M0 145L20 137C40 129 80 113 120 111C160 109 200 121 240 117C280 113 320 93 360 83C400 73 440 73 480 80C520 87 560 101 600 117C640 133 680 151 720 158C760 165 800 161 840 149C880 137 920 117 960 104C1000 91 1040 85 1080 87C1120 89 1160 99 1200 106C1240 113 1280 117 1320 114C1360 111 1400 101 1420 96L1440 91V0H1420C1400 0 1360 0 1320 0C1280 0 1240 0 1200 0C1160 0 1120 0 1080 0C1040 0 1000 0 960 0C920 0 880 0 840 0C800 0 760 0 720 0C680 0 640 0 600 0C560 0 520 0 480 0C440 0 400 0 360 0C320 0 280 0 240 0C200 0 160 0 120 0C80 0 40 0 20 0H0V145Z" fill="#EFEAE3"/>
<path d="M0 235L20 226C40 217 80 199 120 199C160 199 200 217 240 219C280 221 320 207 360 195C400 183 440 173 480 175C520 177 560 191 600 204C640 217 680 229 720 239C760 249 800 257 840 250C880 243 920 221 960 210C1000 199 1040 199 1080 204C1120 209 1160 219 1200 216C1240 213 1280 197 1320 187C1360 177 1400 173 1420 171L1440 169V89L1420 94C1400 99 1360 109 1320 112C1280 115 1240 111 1200 104C1160 97 1120 87 1080 85C1040 83 1000 89 960 102C920 115 880 135 840 147C800 159 760 163 720 156C680 149 640 131 600 115C560 99 520 85 480 78C440 71 400 71 360 81C320 91 280 111 240 115C200 119 160 107 120 109C80 111 40 127 20 135L0 143V235Z" fill="#DC7189"/>
<path d="M0 421L20 404C40 387 80 353 120 343C160 333 200 347 240 346C280 345 320 329 360 333C400 337 440 361 480 362C520 363 560 341 600 357C640 373 680 427 720 445C760 463 800 445 840 420C880 395 920 363 960 366C1000 369 1040 407 1080 419C1120 431 1160 417 1200 398C1240 379 1280 355 1320 359C1360 363 1400 395 1420 411L1440 427V167L1420 169C1400 171 1360 175 1320 185C1280 195 1240 211 1200 214C1160 217 1120 207 1080 202C1040 197 1000 197 960 208C920 219 880 241 840 248C800 255 760 247 720 237C680 227 640 215 600 202C560 189 520 175 480 173C440 171 400 181 360 193C320 205 280 219 240 217C200 215 160 197 120 197C80 197 40 215 20 224L0 233V421Z" fill="#C4556F"/>
<path d="M0 601H20C40 601 80 601 120 601C160 601 200 601 240 601C280 601 320 601 360 601C400 601 440 601 480 601C520 601 560 601 600 601C640 601 680 601 720 601C760 601 800 601 840 601C880 601 920 601 960 601C1000 601 1040 601 1080 601C1120 601 1160 601 1200 601C1240 601 1280 601 1320 601C1360 601 1400 601 1420 601H1440V425L1420 409C1400 393 1360 361 1320 357C1280 353 1240 377 1200 396C1160 415 1120 429 1080 417C1040 405 1000 367 960 364C920 361 880 393 840 418C800 443 760 461 720 443C680 425 640 371 600 355C560 339 520 361 480 360C440 359 400 335 360 331C320 327 280 343 240 344C200 345 160 331 120 341C80 351 40 385 20 402L0 419V601Z" fill="#A04358"/>
</g>
<defs>
<clipPath id="clip0_317_128">
<rect width="1440" height="600" fill="white"/>
</clipPath>
</defs>
</svg>
