<svg width="1446" height="708" viewBox="0 0 1446 708" fill="none" xmlns="http://www.w3.org/2000/svg">
<path d="M532.5 643C336.93 715.161 2.5 706.5 2.5 706.5V1.5H1440.5V26.5C1440.5 26.5 1424 198.5 1079 220C734 241.5 785.697 549.575 532.5 643Z" fill="#E34C67" stroke="#E34C67"/>
<path d="M412.5 555C347.39 707.292 2.5 650 2.5 650V1.5H1439V23C1439 23 1042 205 885.5 218C729 231 501 348 412.5 555Z" fill="#D53867" fill-opacity="0.39" stroke="#E34C67"/>
<path d="M144.905 327.947C135.178 415.979 2 427 2 427V0H977C977 0 714.838 83.66 461.459 108.089C327.975 120.958 167.203 126.159 144.905 327.947Z" fill="#EFEAE3"/>
</svg>
