<svg width="1534" height="708" viewBox="0 0 1534 708" fill="none" xmlns="http://www.w3.org/2000/svg">
<path d="M565.102 643C357.558 715.161 2.65283 706.5 2.65283 706.5V1.5H1528.69V26.5C1528.69 26.5 1511.18 198.5 1145.06 220C778.939 241.5 833.801 549.575 565.102 643Z" fill="#E5647B" stroke="#E5647B"/>
<path d="M437.974 555.288C368.898 707.797 3 650.424 3 650.424V1H1527V22.5306C1527 22.5306 1105.82 204.79 939.785 217.808C773.753 230.827 531.865 347.993 437.974 555.288Z" fill="#D53867" fill-opacity="0.39" stroke="#E5647B"/>
<path d="M153.777 327.947C143.454 415.979 2.12256 427 2.12256 427V0H1036.82C1036.82 0 758.604 83.66 489.712 108.089C348.055 120.958 177.44 126.159 153.777 327.947Z" fill="#EFEAE3"/>
</svg>
